<?xml version="1.0" encoding="UTF-8" standalone="no"?>
<svg
   xmlns:dc="http://purl.org/dc/elements/1.1/"
   xmlns:cc="http://creativecommons.org/ns#"
   xmlns:rdf="http://www.w3.org/1999/02/22-rdf-syntax-ns#"
   xmlns:svg="http://www.w3.org/2000/svg"
   xmlns="http://www.w3.org/2000/svg"
   viewBox="0 0 476 475.88266"
   height="475.88266"
   width="476"
   xml:space="preserve"
   id="svg2"
   version="1.1"><metadata
     id="metadata8"><rdf:RDF><cc:Work
         rdf:about=""><dc:format>image/svg+xml</dc:format><dc:type
           rdf:resource="http://purl.org/dc/dcmitype/StillImage" /></cc:Work></rdf:RDF></metadata><defs
     id="defs6"><clipPath
       id="clipPath18"
       clipPathUnits="userSpaceOnUse"><path
         id="path16"
         d="M 0,356.912 H 357 V 0 H 0 Z" /></clipPath><linearGradient
       id="linearGradient112"
       spreadMethod="pad"
       gradientTransform="matrix(-13.651448,0,0,13.651448,138.69093,276.80466)"
       gradientUnits="userSpaceOnUse"
       y2="0"
       x2="1"
       y1="0"
       x1="0"><stop
         id="stop108"
         offset="0"
         style="stop-opacity:1;stop-color:#00b6cf" /><stop
         id="stop110"
         offset="1"
         style="stop-opacity:1;stop-color:#3e3968" /></linearGradient><linearGradient
       id="linearGradient132"
       spreadMethod="pad"
       gradientTransform="matrix(-115.5595,0,0,115.5595,240.59898,222.20728)"
       gradientUnits="userSpaceOnUse"
       y2="0"
       x2="1"
       y1="0"
       x1="0"><stop
         id="stop128"
         offset="0"
         style="stop-opacity:1;stop-color:#00b6cf" /><stop
         id="stop130"
         offset="1"
         style="stop-opacity:1;stop-color:#3e3968" /></linearGradient><linearGradient
       id="linearGradient152"
       spreadMethod="pad"
       gradientTransform="matrix(-13.651448,0,0,13.651448,138.69093,167.60707)"
       gradientUnits="userSpaceOnUse"
       y2="0"
       x2="1"
       y1="0"
       x1="0"><stop
         id="stop148"
         offset="0"
         style="stop-opacity:1;stop-color:#00b6cf" /><stop
         id="stop150"
         offset="1"
         style="stop-opacity:1;stop-color:#3e3968" /></linearGradient></defs><g
     transform="matrix(1.3333333,0,0,-1.3333333,0,475.88267)"
     id="g10"><g
       id="g12"><g
         clip-path="url(#clipPath18)"
         id="g14"><g
           transform="translate(47.4071,100.522)"
           id="g20"><path
             id="path22"
             style="fill:#3e3968;fill-opacity:1;fill-rule:nonzero;stroke:none"
             d="m 0,0 h 8.167 c 1.204,0 2.264,0.209 3.181,0.628 0.916,0.419 1.636,1.034 2.16,1.846 0.523,0.811 0.785,1.819 0.785,3.023 0,1.126 -0.262,2.055 -0.785,2.788 -0.524,0.733 -1.244,1.29 -2.16,1.669 -0.917,0.379 -1.977,0.57 -3.181,0.57 l -8.167,0 z m 0,14.293 h 7.343 c 1.492,0 2.715,0.367 3.671,1.1 0.956,0.732 1.434,1.845 1.434,3.338 0,1.492 -0.478,2.597 -1.434,3.317 -0.956,0.72 -2.179,1.08 -3.671,1.08 H 0 Z M -2.042,-3.77 c -0.576,0 -1.06,0.197 -1.453,0.589 -0.393,0.393 -0.589,0.877 -0.589,1.453 v 26.584 c 0,0.602 0.196,1.093 0.589,1.473 0.393,0.379 0.877,0.569 1.453,0.569 h 9.385 c 1.78,0 3.344,-0.347 4.692,-1.041 1.348,-0.693 2.409,-1.655 3.181,-2.886 0.772,-1.231 1.158,-2.644 1.158,-4.24 0,-1.283 -0.347,-2.442 -1.04,-3.476 -0.694,-1.034 -1.643,-1.852 -2.847,-2.454 1.728,-0.419 3.115,-1.244 4.162,-2.474 1.047,-1.231 1.571,-2.841 1.571,-4.83 0,-1.806 -0.426,-3.403 -1.276,-4.79 C 16.093,-0.681 14.908,-1.774 13.39,-2.572 11.871,-3.371 10.131,-3.77 8.167,-3.77 Z" /></g><g
           transform="translate(73.7156,96.7523)"
           id="g24"><path
             id="path26"
             style="fill:#3e3968;fill-opacity:1;fill-rule:nonzero;stroke:none"
             d="m 0,0 c -0.576,0 -1.054,0.196 -1.433,0.589 -0.38,0.393 -0.57,0.877 -0.57,1.453 v 26.584 c 0,0.575 0.197,1.06 0.589,1.453 0.393,0.392 0.864,0.589 1.414,0.589 0.575,0 1.06,-0.197 1.453,-0.589 0.393,-0.393 0.589,-0.878 0.589,-1.453 V 4.084 h 14.215 c 0.575,0 1.06,-0.197 1.453,-0.589 0.392,-0.393 0.589,-0.878 0.589,-1.453 0,-0.576 -0.197,-1.06 -0.589,-1.453 C 17.317,0.196 16.832,0 16.257,0 Z" /></g><g
           transform="translate(108.35,100.0506)"
           id="g28"><path
             id="path30"
             style="fill:#3e3968;fill-opacity:1;fill-rule:nonzero;stroke:none"
             d="m 0,0 c 1.701,0 3.265,0.308 4.693,0.923 1.426,0.615 2.663,1.466 3.71,2.552 1.047,1.086 1.852,2.363 2.415,3.829 0.563,1.466 0.844,3.049 0.844,4.751 0,1.702 -0.281,3.285 -0.844,4.752 -0.563,1.465 -1.368,2.742 -2.415,3.828 -1.047,1.086 -2.284,1.93 -3.71,2.533 C 3.265,23.77 1.701,24.071 0,24.071 c -1.702,0 -3.266,-0.301 -4.692,-0.903 -1.428,-0.603 -2.658,-1.447 -3.691,-2.533 -1.035,-1.086 -1.84,-2.363 -2.416,-3.828 -0.576,-1.467 -0.863,-3.05 -0.863,-4.752 0,-1.702 0.287,-3.285 0.863,-4.751 0.576,-1.466 1.381,-2.743 2.416,-3.829 C -7.35,2.389 -6.12,1.538 -4.692,0.923 -3.266,0.308 -1.702,0 0,0 m 0,-3.691 c -2.304,0 -4.411,0.387 -6.322,1.159 -1.911,0.771 -3.554,1.858 -4.928,3.259 -1.374,1.4 -2.442,3.063 -3.2,4.987 -0.76,1.923 -1.139,4.037 -1.139,6.341 0,2.303 0.379,4.411 1.139,6.322 0.758,1.911 1.826,3.567 3.2,4.967 1.374,1.401 3.017,2.487 4.928,3.26 1.911,0.772 4.018,1.158 6.322,1.158 2.303,0 4.404,-0.386 6.303,-1.158 1.897,-0.773 3.539,-1.859 4.927,-3.26 1.388,-1.4 2.461,-3.056 3.22,-4.967 0.759,-1.911 1.139,-4.019 1.139,-6.322 0,-2.304 -0.38,-4.418 -1.139,-6.341 C 13.691,3.79 12.618,2.127 11.23,0.727 9.842,-0.674 8.2,-1.761 6.303,-2.532 4.404,-3.304 2.303,-3.691 0,-3.691" /></g><g
           transform="translate(143.2979,96.3597)"
           id="g32"><path
             id="path34"
             style="fill:#3e3968;fill-opacity:1;fill-rule:nonzero;stroke:none"
             d="m 0,0 c -2.12,0 -4.104,0.399 -5.949,1.197 -1.845,0.799 -3.455,1.911 -4.83,3.339 -1.374,1.426 -2.448,3.095 -3.22,5.006 -0.772,1.91 -1.158,3.979 -1.158,6.204 0,2.199 0.386,4.247 1.158,6.145 0.772,1.898 1.846,3.56 3.22,4.987 1.375,1.427 2.978,2.546 4.81,3.358 1.833,0.811 3.822,1.217 5.969,1.217 2.015,0 3.75,-0.262 5.203,-0.785 1.453,-0.524 2.912,-1.388 4.378,-2.592 0.209,-0.157 0.373,-0.321 0.491,-0.491 0.118,-0.17 0.196,-0.34 0.236,-0.51 0.039,-0.171 0.059,-0.373 0.059,-0.609 0,-0.497 -0.177,-0.91 -0.531,-1.237 C 9.483,24.902 9.057,24.719 8.56,24.679 8.063,24.64 7.579,24.803 7.107,25.17 6.139,26.008 5.137,26.649 4.104,27.094 3.069,27.539 1.701,27.762 0,27.762 c -1.545,0 -2.998,-0.314 -4.359,-0.942 -1.361,-0.629 -2.559,-1.493 -3.592,-2.592 -1.035,-1.1 -1.84,-2.376 -2.416,-3.829 -0.576,-1.453 -0.863,-3.004 -0.863,-4.653 0,-1.675 0.287,-3.24 0.863,-4.692 C -9.791,9.601 -8.986,8.325 -7.951,7.225 -6.918,6.126 -5.72,5.268 -4.359,4.653 -2.998,4.038 -1.545,3.73 0,3.73 1.335,3.73 2.598,3.959 3.789,4.417 4.98,4.875 6.126,5.51 7.225,6.322 7.696,6.662 8.161,6.813 8.619,6.773 9.077,6.735 9.463,6.551 9.778,6.224 10.092,5.896 10.249,5.445 10.249,4.869 10.249,4.607 10.196,4.352 10.092,4.104 9.987,3.854 9.83,3.625 9.621,3.416 8.207,2.29 6.695,1.439 5.085,0.864 3.475,0.289 1.78,0 0,0" /></g><g
           transform="translate(162.1065,96.7523)"
           id="g36"><path
             id="path38"
             style="fill:#3e3968;fill-opacity:1;fill-rule:nonzero;stroke:none"
             d="m 0,0 c -0.55,0 -1.028,0.196 -1.433,0.589 -0.406,0.393 -0.609,0.877 -0.609,1.453 v 26.584 c 0,0.575 0.203,1.06 0.609,1.453 0.405,0.392 0.883,0.589 1.433,0.589 0.575,0 1.06,-0.197 1.453,-0.589 0.393,-0.393 0.589,-0.878 0.589,-1.453 v -11.78 l 12.997,12.997 c 0.315,0.314 0.602,0.53 0.864,0.648 0.261,0.118 0.536,0.177 0.825,0.177 0.654,0 1.125,-0.197 1.414,-0.589 0.287,-0.393 0.392,-0.858 0.314,-1.394 -0.079,-0.537 -0.328,-1.028 -0.746,-1.473 L 7.696,17.16 17.906,3.259 C 18.22,2.814 18.351,2.337 18.299,1.826 18.246,1.316 18.063,0.883 17.749,0.53 17.435,0.177 17.016,0 16.492,0 15.759,0 15.196,0.288 14.804,0.864 L 4.869,14.333 2.042,11.505 V 2.042 C 2.042,1.466 1.846,0.982 1.453,0.589 1.06,0.196 0.575,0 0,0" /></g><g
           transform="translate(198.4287,96.3597)"
           id="g40"><path
             id="path42"
             style="fill:#3e3968;fill-opacity:1;fill-rule:nonzero;stroke:none"
             d="m 0,0 c -2.12,0 -4.104,0.399 -5.949,1.197 -1.845,0.799 -3.455,1.911 -4.83,3.339 -1.374,1.426 -2.448,3.095 -3.22,5.006 -0.772,1.91 -1.158,3.979 -1.158,6.204 0,2.199 0.386,4.247 1.158,6.145 0.772,1.898 1.846,3.56 3.22,4.987 1.375,1.427 2.978,2.546 4.81,3.358 1.833,0.811 3.822,1.217 5.969,1.217 2.015,0 3.75,-0.262 5.203,-0.785 1.453,-0.524 2.912,-1.388 4.378,-2.592 0.209,-0.157 0.373,-0.321 0.491,-0.491 0.118,-0.17 0.196,-0.34 0.236,-0.51 0.039,-0.171 0.059,-0.373 0.059,-0.609 0,-0.497 -0.177,-0.91 -0.531,-1.237 C 9.483,24.902 9.057,24.719 8.56,24.679 8.063,24.64 7.579,24.803 7.107,25.17 6.139,26.008 5.137,26.649 4.104,27.094 3.069,27.539 1.701,27.762 0,27.762 c -1.545,0 -2.998,-0.314 -4.359,-0.942 -1.361,-0.629 -2.559,-1.493 -3.592,-2.592 -1.035,-1.1 -1.84,-2.376 -2.416,-3.829 -0.576,-1.453 -0.863,-3.004 -0.863,-4.653 0,-1.675 0.287,-3.24 0.863,-4.692 C -9.791,9.601 -8.986,8.325 -7.951,7.225 -6.918,6.126 -5.72,5.268 -4.359,4.653 -2.998,4.038 -1.545,3.73 0,3.73 1.335,3.73 2.598,3.959 3.789,4.417 4.98,4.875 6.126,5.51 7.225,6.322 7.696,6.662 8.161,6.813 8.619,6.773 9.077,6.735 9.463,6.551 9.778,6.224 10.092,5.896 10.249,5.445 10.249,4.869 10.249,4.607 10.196,4.352 10.092,4.104 9.987,3.854 9.83,3.625 9.621,3.416 8.207,2.29 6.695,1.439 5.085,0.864 3.475,0.289 1.78,0 0,0" /></g><g
           transform="translate(217.2377,96.7523)"
           id="g44"><path
             id="path46"
             style="fill:#3e3968;fill-opacity:1;fill-rule:nonzero;stroke:none"
             d="m 0,0 c -0.576,0 -1.06,0.196 -1.453,0.589 -0.393,0.393 -0.589,0.877 -0.589,1.453 v 26.584 c 0,0.602 0.196,1.092 0.589,1.472 0.393,0.38 0.877,0.57 1.453,0.57 0.602,0 1.093,-0.19 1.472,-0.57 0.38,-0.38 0.57,-0.87 0.57,-1.472 v -11.27 h 18.22 v 11.27 c 0,0.602 0.196,1.092 0.589,1.472 0.393,0.38 0.877,0.57 1.453,0.57 0.602,0 1.086,-0.19 1.453,-0.57 0.366,-0.38 0.549,-0.87 0.549,-1.472 V 2.042 c 0,-0.576 -0.183,-1.06 -0.549,-1.453 C 23.39,0.196 22.906,0 22.304,0 21.728,0 21.244,0.196 20.851,0.589 20.458,0.982 20.262,1.466 20.262,2.042 V 13.744 H 2.042 V 2.042 C 2.042,1.466 1.852,0.982 1.472,0.589 1.093,0.196 0.602,0 0,0" /></g><g
           transform="translate(250.2608,103.5063)"
           id="g48"><path
             id="path50"
             style="fill:#3e3968;fill-opacity:1;fill-rule:nonzero;stroke:none"
             d="M 0,0 1.571,3.377 H 16.963 L 18.534,0 Z m -2.081,-6.754 c -0.733,0 -1.296,0.314 -1.689,0.942 -0.392,0.629 -0.432,1.296 -0.118,2.003 L 7.147,22.539 c 0.392,0.916 1.033,1.375 1.924,1.375 0.942,0 1.583,-0.459 1.924,-1.375 L 22.068,-3.887 c 0.288,-0.734 0.242,-1.394 -0.137,-1.983 -0.38,-0.589 -0.949,-0.884 -1.708,-0.884 -0.393,0 -0.766,0.111 -1.12,0.334 -0.353,0.222 -0.608,0.53 -0.765,0.923 L 8.6,18.691 H 9.699 L -0.196,-5.497 C -0.38,-5.917 -0.648,-6.231 -1.002,-6.44 -1.355,-6.65 -1.715,-6.754 -2.081,-6.754" /></g><g
           transform="translate(279.0438,96.7523)"
           id="g52"><path
             id="path54"
             style="fill:#3e3968;fill-opacity:1;fill-rule:nonzero;stroke:none"
             d="m 0,0 c -0.577,0 -1.06,0.196 -1.453,0.589 -0.393,0.393 -0.59,0.877 -0.59,1.453 v 26.584 c 0,0.602 0.197,1.092 0.59,1.472 0.393,0.38 0.876,0.57 1.453,0.57 0.601,0 1.092,-0.19 1.472,-0.57 0.38,-0.38 0.569,-0.87 0.569,-1.472 V 2.042 C 2.041,1.466 1.852,0.982 1.472,0.589 1.092,0.196 0.601,0 0,0" /></g><g
           transform="translate(290.9413,96.7523)"
           id="g56"><path
             id="path58"
             style="fill:#3e3968;fill-opacity:1;fill-rule:nonzero;stroke:none"
             d="m 0,0 c -0.576,0 -1.055,0.196 -1.434,0.589 -0.379,0.393 -0.569,0.877 -0.569,1.453 v 26.584 c 0,0.602 0.19,1.092 0.569,1.472 0.379,0.38 0.858,0.57 1.434,0.57 0.628,0 1.151,-0.249 1.571,-0.746 L 18.69,7.147 v 21.479 c 0,0.602 0.197,1.092 0.59,1.472 0.393,0.38 0.877,0.57 1.453,0.57 0.602,0 1.086,-0.19 1.453,-0.57 0.366,-0.38 0.55,-0.87 0.55,-1.472 V 2.042 c 0,-0.576 -0.184,-1.06 -0.55,-1.453 C 21.819,0.196 21.335,0 20.733,0 20.471,0 20.189,0.059 19.888,0.177 19.587,0.294 19.345,0.471 19.162,0.707 L 2.041,23.482 V 2.042 C 2.041,1.466 1.851,0.982 1.472,0.589 1.092,0.196 0.602,0 0,0" /></g><g
           transform="translate(100.2481,66.3169)"
           id="g60"><path
             id="path62"
             style="fill:#6a6b6d;fill-opacity:1;fill-rule:nonzero;stroke:none"
             d="m 0,0 c -1.678,0 -3.161,0.363 -4.45,1.09 -1.289,0.725 -2.302,1.733 -3.038,3.022 -0.736,1.289 -1.105,2.762 -1.105,4.419 0,1.677 0.348,3.155 1.043,4.434 0.696,1.278 1.653,2.286 2.87,3.023 1.217,0.737 2.624,1.105 4.22,1.105 1.554,0 2.91,-0.353 4.066,-1.059 C 4.761,15.328 5.651,14.351 6.275,13.103 6.899,11.855 7.211,10.433 7.211,8.838 7.211,8.49 7.098,8.209 6.874,7.994 6.648,7.779 6.362,7.672 6.015,7.672 H -6.813 V 9.789 H 6.168 L 4.848,8.868 c 0.021,1.125 -0.184,2.138 -0.614,3.038 -0.429,0.901 -1.043,1.607 -1.841,2.118 -0.798,0.511 -1.749,0.767 -2.853,0.767 -1.167,0 -2.185,-0.266 -3.054,-0.797 -0.87,-0.533 -1.534,-1.275 -1.994,-2.225 -0.461,-0.952 -0.691,-2.031 -0.691,-3.238 0,-1.207 0.265,-2.282 0.798,-3.222 0.532,-0.941 1.263,-1.678 2.194,-2.21 0.931,-0.532 2,-0.798 3.207,-0.798 0.695,0 1.406,0.123 2.133,0.369 C 2.858,2.916 3.437,3.222 3.866,3.59 4.112,3.775 4.392,3.871 4.71,3.882 5.027,3.892 5.288,3.805 5.493,3.621 5.799,3.355 5.958,3.069 5.969,2.762 5.978,2.455 5.841,2.189 5.554,1.964 4.879,1.391 4.02,0.92 2.976,0.552 1.933,0.184 0.94,0 0,0" /></g><g
           transform="translate(125.4724,66.6237)"
           id="g64"><path
             id="path66"
             style="fill:#6a6b6d;fill-opacity:1;fill-rule:nonzero;stroke:none"
             d="m 0,0 c -0.286,-0.246 -0.588,-0.353 -0.905,-0.322 -0.318,0.03 -0.589,0.188 -0.813,0.475 l -6.659,8.194 1.81,1.657 6.751,-8.316 C 0.409,1.422 0.511,1.135 0.491,0.828 0.471,0.521 0.307,0.246 0,0 m -10.249,5.616 -1.565,1.718 10.157,9.175 c 0.266,0.246 0.547,0.358 0.844,0.338 C -0.517,16.827 -0.246,16.683 0,16.418 0.246,16.152 0.358,15.87 0.338,15.574 0.317,15.277 0.174,15.006 -0.092,14.761 Z m -0.982,-5.769 c -0.368,0 -0.671,0.117 -0.906,0.353 -0.235,0.235 -0.353,0.537 -0.353,0.905 v 21.45 c 0,0.368 0.118,0.67 0.353,0.906 0.235,0.234 0.538,0.352 0.906,0.352 0.388,0 0.701,-0.118 0.936,-0.352 0.234,-0.236 0.353,-0.538 0.353,-0.906 V 1.105 c 0,-0.368 -0.119,-0.67 -0.353,-0.905 -0.235,-0.236 -0.548,-0.353 -0.936,-0.353" /></g><g
           transform="translate(138.1466,68.649)"
           id="g68"><path
             id="path70"
             style="fill:#6a6b6d;fill-opacity:1;fill-rule:nonzero;stroke:none"
             d="m 0,0 c 1.146,0 2.168,0.271 3.069,0.813 0.9,0.542 1.606,1.278 2.118,2.21 0.511,0.931 0.767,1.989 0.767,3.176 0,1.186 -0.256,2.25 -0.767,3.192 -0.512,0.94 -1.218,1.681 -2.118,2.224 -0.901,0.542 -1.923,0.814 -3.069,0.814 -1.145,0 -2.174,-0.272 -3.084,-0.814 C -3.994,11.072 -4.71,10.331 -5.232,9.391 -5.753,8.449 -6.014,7.385 -6.014,6.199 -6.014,5.012 -5.753,3.954 -5.232,3.023 -4.71,2.091 -3.994,1.355 -3.084,0.813 -2.174,0.271 -1.145,0 0,0 m 0,-2.332 c -1.657,0 -3.125,0.368 -4.404,1.105 -1.278,0.736 -2.286,1.748 -3.022,3.038 -0.736,1.288 -1.105,2.751 -1.105,4.388 0,1.657 0.369,3.13 1.105,4.419 0.736,1.288 1.744,2.301 3.022,3.038 1.279,0.737 2.747,1.105 4.404,1.105 1.637,0 3.089,-0.368 4.358,-1.105 1.268,-0.737 2.27,-1.75 3.007,-3.038 C 8.102,9.329 8.48,7.856 8.5,6.199 8.5,4.562 8.132,3.099 7.396,1.811 6.659,0.521 5.652,-0.491 4.373,-1.227 3.094,-1.964 1.637,-2.332 0,-2.332" /></g><g
           transform="translate(158.7066,66.3169)"
           id="g72"><path
             id="path74"
             style="fill:#6a6b6d;fill-opacity:1;fill-rule:nonzero;stroke:none"
             d="m 0,0 c -1.269,0 -2.501,0.21 -3.698,0.629 -1.196,0.419 -2.153,1.017 -2.868,1.795 -0.246,0.266 -0.349,0.573 -0.307,0.921 0.04,0.347 0.204,0.634 0.49,0.859 0.328,0.246 0.66,0.347 0.998,0.307 0.338,-0.041 0.618,-0.184 0.844,-0.429 0.449,-0.533 1.074,-0.957 1.872,-1.275 0.797,-0.317 1.677,-0.475 2.639,-0.475 1.411,0 2.45,0.24 3.114,0.721 0.665,0.481 1.008,1.08 1.029,1.796 0,0.694 -0.333,1.278 -0.998,1.748 -0.665,0.471 -1.795,0.839 -3.391,1.105 -2.066,0.348 -3.575,0.931 -4.527,1.75 -0.95,0.818 -1.426,1.799 -1.426,2.946 0,1.043 0.286,1.912 0.859,2.608 0.573,0.695 1.324,1.217 2.256,1.565 0.931,0.348 1.938,0.522 3.023,0.522 1.37,0 2.557,-0.231 3.559,-0.691 C 4.47,15.942 5.279,15.323 5.892,14.546 6.117,14.259 6.214,13.957 6.184,13.641 6.153,13.323 5.985,13.072 5.678,12.889 5.411,12.704 5.099,12.643 4.741,12.704 c -0.357,0.062 -0.659,0.225 -0.905,0.492 -0.511,0.552 -1.094,0.956 -1.749,1.212 -0.655,0.255 -1.402,0.383 -2.24,0.383 -1.064,0 -1.923,-0.21 -2.578,-0.629 -0.655,-0.42 -0.982,-0.957 -0.982,-1.611 0,-0.45 0.118,-0.839 0.353,-1.166 0.235,-0.328 0.654,-0.619 1.258,-0.874 C -1.498,10.255 -0.634,10.024 0.491,9.82 2.025,9.554 3.238,9.18 4.128,8.7 5.018,8.219 5.652,7.661 6.031,7.027 6.409,6.393 6.598,5.687 6.598,4.91 6.598,3.948 6.326,3.104 5.785,2.378 5.243,1.652 4.481,1.074 3.499,0.645 2.517,0.215 1.35,0 0,0" /></g><g
           transform="translate(173.8043,59.136)"
           id="g76"><path
             id="path78"
             style="fill:#6a6b6d;fill-opacity:1;fill-rule:nonzero;stroke:none"
             d="M 0,0 C -0.164,0 -0.368,0.052 -0.614,0.153 -1.37,0.502 -1.575,1.044 -1.227,1.78 l 9.728,21.634 c 0.347,0.717 0.89,0.911 1.626,0.583 0.757,-0.307 0.972,-0.839 0.644,-1.595 L 0.982,0.798 C 0.777,0.266 0.45,0 0,0 M 3.468,7.918 C 3.141,7.753 2.834,7.723 2.548,7.825 2.261,7.927 2.026,8.152 1.842,8.5 l -6.874,13.902 c -0.164,0.347 -0.189,0.664 -0.077,0.951 0.112,0.286 0.333,0.511 0.66,0.675 0.347,0.143 0.665,0.164 0.951,0.061 0.286,-0.102 0.511,-0.317 0.675,-0.644 L 3.898,9.513 C 4.061,9.185 4.117,8.873 4.067,8.577 4.015,8.28 3.815,8.06 3.468,7.918" /></g><g
           transform="translate(195.071,66.3169)"
           id="g80"><path
             id="path82"
             style="fill:#6a6b6d;fill-opacity:1;fill-rule:nonzero;stroke:none"
             d="m 0,0 c -1.269,0 -2.501,0.21 -3.698,0.629 -1.197,0.419 -2.153,1.017 -2.869,1.795 -0.246,0.266 -0.348,0.573 -0.307,0.921 0.041,0.347 0.204,0.634 0.491,0.859 0.327,0.246 0.66,0.347 0.997,0.307 0.338,-0.041 0.619,-0.184 0.844,-0.429 0.45,-0.533 1.074,-0.957 1.872,-1.275 0.798,-0.317 1.677,-0.475 2.639,-0.475 1.412,0 2.45,0.24 3.115,0.721 0.665,0.481 1.007,1.08 1.028,1.796 0,0.694 -0.332,1.278 -0.997,1.748 -0.665,0.471 -1.796,0.839 -3.392,1.105 -2.065,0.348 -3.574,0.931 -4.526,1.75 -0.951,0.818 -1.426,1.799 -1.426,2.946 0,1.043 0.286,1.912 0.859,2.608 0.572,0.695 1.324,1.217 2.255,1.565 0.931,0.348 1.939,0.522 3.023,0.522 1.37,0 2.557,-0.231 3.559,-0.691 C 4.47,15.942 5.278,15.323 5.892,14.546 6.117,14.259 6.214,13.957 6.183,13.641 6.153,13.323 5.984,13.072 5.677,12.889 5.411,12.704 5.099,12.643 4.741,12.704 c -0.358,0.062 -0.659,0.225 -0.905,0.492 -0.512,0.552 -1.094,0.956 -1.749,1.212 -0.655,0.255 -1.402,0.383 -2.24,0.383 -1.065,0 -1.924,-0.21 -2.578,-0.629 -0.655,-0.42 -0.982,-0.957 -0.982,-1.611 0,-0.45 0.117,-0.839 0.353,-1.166 0.235,-0.328 0.654,-0.619 1.258,-0.874 C -1.499,10.255 -0.634,10.024 0.491,9.82 2.025,9.554 3.237,9.18 4.128,8.7 5.017,8.219 5.652,7.661 6.03,7.027 6.408,6.393 6.597,5.687 6.597,4.91 6.597,3.948 6.326,3.104 5.784,2.378 5.242,1.652 4.481,1.074 3.498,0.645 2.517,0.215 1.35,0 0,0" /></g><g
           transform="translate(213.6669,66.4703)"
           id="g84"><path
             id="path86"
             style="fill:#6a6b6d;fill-opacity:1;fill-rule:nonzero;stroke:none"
             d="m 0,0 c -1.064,0 -2.015,0.256 -2.854,0.767 -0.839,0.511 -1.499,1.217 -1.979,2.118 -0.481,0.899 -0.722,1.912 -0.722,3.038 v 14.914 c 0,0.368 0.118,0.674 0.353,0.92 0.236,0.246 0.548,0.368 0.937,0.368 0.368,0 0.675,-0.122 0.92,-0.368 0.246,-0.246 0.368,-0.552 0.368,-0.92 V 5.923 c 0,-0.962 0.282,-1.76 0.844,-2.394 C -1.57,2.895 -0.859,2.578 0,2.578 H 0.92 C 1.248,2.578 1.524,2.455 1.75,2.21 1.974,1.964 2.087,1.657 2.087,1.288 2.087,0.9 1.949,0.588 1.672,0.353 1.397,0.118 1.044,0 0.614,0 Z m -7.364,13.932 c -0.349,0 -0.636,0.108 -0.86,0.322 -0.225,0.215 -0.338,0.476 -0.338,0.782 0,0.328 0.113,0.599 0.338,0.814 0.224,0.215 0.511,0.322 0.86,0.322 h 7.579 c 0.348,0 0.634,-0.107 0.859,-0.322 0.225,-0.215 0.338,-0.486 0.338,-0.814 0,-0.306 -0.113,-0.567 -0.338,-0.782 C 0.849,14.04 0.563,13.932 0.215,13.932 Z" /></g><g
           transform="translate(228.8266,66.3169)"
           id="g88"><path
             id="path90"
             style="fill:#6a6b6d;fill-opacity:1;fill-rule:nonzero;stroke:none"
             d="m 0,0 c -1.678,0 -3.161,0.363 -4.45,1.09 -1.289,0.725 -2.302,1.733 -3.038,3.022 -0.737,1.289 -1.105,2.762 -1.105,4.419 0,1.677 0.348,3.155 1.043,4.434 0.696,1.278 1.653,2.286 2.87,3.023 1.217,0.737 2.624,1.105 4.22,1.105 1.554,0 2.91,-0.353 4.066,-1.059 C 4.761,15.328 5.651,14.351 6.275,13.103 6.899,11.855 7.211,10.433 7.211,8.838 7.211,8.49 7.098,8.209 6.874,7.994 6.648,7.779 6.362,7.672 6.015,7.672 H -6.813 V 9.789 H 6.168 L 4.848,8.868 c 0.021,1.125 -0.184,2.138 -0.614,3.038 -0.429,0.901 -1.043,1.607 -1.841,2.118 -0.798,0.511 -1.749,0.767 -2.853,0.767 -1.167,0 -2.185,-0.266 -3.054,-0.797 -0.87,-0.533 -1.534,-1.275 -1.994,-2.225 -0.461,-0.952 -0.691,-2.031 -0.691,-3.238 0,-1.207 0.265,-2.282 0.798,-3.222 0.532,-0.941 1.263,-1.678 2.194,-2.21 0.93,-0.532 2,-0.798 3.207,-0.798 0.695,0 1.406,0.123 2.133,0.369 C 2.858,2.916 3.437,3.222 3.866,3.59 4.112,3.775 4.392,3.871 4.71,3.882 5.027,3.892 5.288,3.805 5.493,3.621 5.799,3.355 5.958,3.069 5.969,2.762 5.978,2.455 5.841,2.189 5.554,1.964 4.879,1.391 4.02,0.92 2.976,0.552 1.933,0.184 0.94,0 0,0" /></g><g
           transform="translate(264.0551,66.4703)"
           id="g92"><path
             id="path94"
             style="fill:#6a6b6d;fill-opacity:1;fill-rule:nonzero;stroke:none"
             d="M 0,0 C -0.389,0 -0.706,0.118 -0.951,0.353 -1.197,0.588 -1.319,0.9 -1.319,1.288 v 8.808 c 0,1.411 -0.359,2.506 -1.074,3.283 -0.717,0.778 -1.647,1.167 -2.793,1.167 -1.207,0 -2.194,-0.41 -2.961,-1.228 -0.767,-0.818 -1.151,-1.893 -1.151,-3.222 h -2.24 c 0.02,1.371 0.317,2.573 0.89,3.606 0.572,1.032 1.366,1.836 2.378,2.408 1.013,0.573 2.163,0.86 3.452,0.86 1.186,0 2.24,-0.276 3.161,-0.829 0.92,-0.552 1.642,-1.345 2.163,-2.378 0.522,-1.033 0.783,-2.256 0.783,-3.667 V 1.288 C 1.289,0.9 1.166,0.588 0.92,0.353 0.675,0.118 0.368,0 0,0 m -10.587,0 c -0.369,0 -0.675,0.118 -0.92,0.353 -0.246,0.235 -0.369,0.547 -0.369,0.935 v 8.808 c 0,1.411 -0.363,2.506 -1.089,3.283 -0.727,0.778 -1.653,1.167 -2.777,1.167 -1.208,0 -2.2,-0.399 -2.977,-1.197 -0.778,-0.798 -1.166,-1.842 -1.166,-3.13 h -1.78 c 0.041,1.33 0.327,2.5 0.859,3.513 0.532,1.013 1.268,1.806 2.209,2.378 0.941,0.573 2.015,0.86 3.223,0.86 1.186,0 2.24,-0.276 3.161,-0.829 0.92,-0.552 1.636,-1.345 2.148,-2.378 0.511,-1.033 0.767,-2.256 0.767,-3.667 V 1.288 C -9.298,0.9 -9.416,0.588 -9.651,0.353 -9.887,0.118 -10.199,0 -10.587,0 m -10.587,0 c -0.41,0 -0.732,0.118 -0.967,0.353 -0.235,0.235 -0.353,0.547 -0.353,0.935 v 14.179 c 0,0.387 0.118,0.705 0.353,0.951 0.235,0.245 0.557,0.368 0.967,0.368 0.388,0 0.701,-0.123 0.936,-0.368 0.235,-0.246 0.353,-0.564 0.353,-0.951 V 1.288 c 0,-0.388 -0.118,-0.7 -0.353,-0.935 C -20.473,0.118 -20.786,0 -21.174,0" /></g></g></g><g
       id="g96"><g
         id="g98"><g
           id="g104"><g
             id="g106"><path
               id="path114"
               style="fill:url(#linearGradient112);stroke:none"
               d="m 125.04,269.981 h 13.651 v 13.647 H 125.04 Z" /></g></g></g></g><g
       id="g116"><g
         id="g118"><g
           id="g124"><g
             id="g126"><path
               id="path134"
               style="fill:url(#linearGradient132);stroke:none"
               d="m 179.639,299.776 v -16.148 h -13.648 v 16.148 H 152.339 V 283.628 269.981 256.328 H 125.04 v -68.247 h 27.299 v -13.654 -13.64 -16.149 h 13.652 v 16.149 h 13.648 v -16.149 h 13.652 v 16.149 h 13.18 c 18.826,0 34.128,15.304 34.128,34.125 v 0 c 0,11.147 -5.372,21.066 -13.669,27.296 v 0 c 8.297,6.228 13.669,16.148 13.669,27.3 v 0 c 0,18.815 -15.302,34.12 -34.128,34.12 v 0 h -13.18 v 16.148 z m -13.648,-29.795 h 40.48 c 11.288,0 20.479,-9.192 20.479,-20.473 v 0 c 0,-11.288 -9.191,-20.48 -20.479,-20.48 v 0 h -40.48 v 13.652 h 40.48 c 3.756,0 6.828,3.074 6.828,6.828 v 0 c 0,3.747 -3.072,6.82 -6.828,6.82 v 0 h -40.48 z m -27.3,-27.301 h 13.648 v -13.652 h -13.648 z m 27.3,-27.299 h 40.48 c 11.288,0 20.479,-9.186 20.479,-20.469 v 0 c 0,-11.291 -9.191,-20.485 -20.479,-20.485 v 0 h -40.48 v 13.654 h 40.48 c 3.756,0 6.828,3.068 6.828,6.831 v 0 c 0,3.743 -3.072,6.822 -6.828,6.822 v 0 h -40.48 z m -27.3,0 h 13.648 v -13.647 h -13.648 z" /></g></g></g></g><g
       id="g136"><g
         id="g138"><g
           id="g144"><g
             id="g146"><path
               id="path154"
               style="fill:url(#linearGradient152);stroke:none"
               d="m 125.04,160.787 h 13.651 v 13.64 H 125.04 Z" /></g></g></g></g></g></svg>