<svg width="362" height="322" viewBox="0 0 362 322" fill="none" xmlns="http://www.w3.org/2000/svg">
<path d="M6.20946 265.853H17.0988C18.7041 265.853 20.1175 265.575 21.3401 265.016C22.5615 264.457 23.5215 263.637 24.2201 262.555C24.9175 261.473 25.2668 260.129 25.2668 258.524C25.2668 257.023 24.9175 255.784 24.2201 254.807C23.5215 253.829 22.5615 253.087 21.3401 252.581C20.1175 252.076 18.7041 251.821 17.0988 251.821H6.20946V265.853ZM6.20946 246.796H16.0001C17.9895 246.796 19.6201 246.307 20.8948 245.329C22.1695 244.353 22.8068 242.869 22.8068 240.879C22.8068 238.889 22.1695 237.416 20.8948 236.456C19.6201 235.496 17.9895 235.016 16.0001 235.016H6.20946V246.796ZM3.4868 270.88C2.7188 270.88 2.07346 270.617 1.54946 270.095C1.02546 269.571 0.76413 268.925 0.76413 268.157V232.712C0.76413 231.909 1.02546 231.255 1.54946 230.748C2.07346 230.243 2.7188 229.989 3.4868 229.989H16.0001C18.3735 229.989 20.4588 230.452 22.2561 231.377C24.0535 232.301 25.4681 233.584 26.4975 235.225C27.5268 236.867 28.0415 238.751 28.0415 240.879C28.0415 242.589 27.5788 244.135 26.6548 245.513C25.7295 246.892 24.4641 247.983 22.8588 248.785C25.1628 249.344 27.0121 250.444 28.4081 252.084C29.8041 253.725 30.5028 255.872 30.5028 258.524C30.5028 260.932 29.9348 263.061 28.8015 264.911C27.6668 266.761 26.0868 268.219 24.0628 269.283C22.0375 270.348 19.7175 270.88 17.0988 270.88H3.4868Z" fill="#3E3968"/>
<path d="M41.2875 270.88C40.5195 270.88 39.8821 270.618 39.3768 270.094C38.8701 269.57 38.6168 268.925 38.6168 268.157V232.712C38.6168 231.945 38.8795 231.298 39.4021 230.774C39.9261 230.252 40.5541 229.989 41.2875 229.989C42.0541 229.989 42.7008 230.252 43.2248 230.774C43.7488 231.298 44.0101 231.945 44.0101 232.712V265.434H62.9635C63.7301 265.434 64.3768 265.697 64.9008 266.22C65.4235 266.744 65.6861 267.39 65.6861 268.157C65.6861 268.925 65.4235 269.57 64.9008 270.094C64.3768 270.618 63.7301 270.88 62.9635 270.88H41.2875Z" fill="#3E3968"/>
<path d="M87.4667 266.482C89.7347 266.482 91.82 266.071 93.724 265.251C95.6253 264.431 97.2747 263.297 98.6707 261.849C100.067 260.401 101.14 258.698 101.891 256.743C102.641 254.789 103.016 252.678 103.016 250.409C103.016 248.139 102.641 246.029 101.891 244.073C101.14 242.119 100.067 240.417 98.6707 238.969C97.2747 237.521 95.6253 236.395 93.724 235.591C91.82 234.789 89.7347 234.387 87.4667 234.387C85.1973 234.387 83.112 234.789 81.2107 235.591C79.3067 236.395 77.6667 237.521 76.2893 238.969C74.9093 240.417 73.836 242.119 73.068 244.073C72.3 246.029 71.9173 248.139 71.9173 250.409C71.9173 252.678 72.3 254.789 73.068 256.743C73.836 258.698 74.9093 260.401 76.2893 261.849C77.6667 263.297 79.3067 264.431 81.2107 265.251C83.112 266.071 85.1973 266.482 87.4667 266.482ZM87.4667 271.403C84.3947 271.403 81.5853 270.887 79.0373 269.858C76.4893 268.83 74.2987 267.381 72.4667 265.513C70.6347 263.646 69.2107 261.429 68.2 258.863C67.1867 256.299 66.6813 253.481 66.6813 250.409C66.6813 247.338 67.1867 244.527 68.2 241.979C69.2107 239.431 70.6347 237.223 72.4667 235.357C74.2987 233.489 76.4893 232.041 79.0373 231.01C81.5853 229.981 84.3947 229.466 87.4667 229.466C90.5373 229.466 93.3387 229.981 95.8707 231.01C98.4 232.041 100.589 233.489 102.44 235.357C104.291 237.223 105.721 239.431 106.733 241.979C107.745 244.527 108.252 247.338 108.252 250.409C108.252 253.481 107.745 256.299 106.733 258.863C105.721 261.429 104.291 263.646 102.44 265.513C100.589 267.381 98.4 268.83 95.8707 269.858C93.3387 270.887 90.5373 271.403 87.4667 271.403Z" fill="#3E3968"/>
<path d="M134.064 271.403C131.237 271.403 128.592 270.871 126.132 269.807C123.672 268.742 121.525 267.259 119.692 265.355C117.86 263.454 116.428 261.228 115.399 258.68C114.369 256.134 113.855 253.375 113.855 250.408C113.855 247.476 114.369 244.746 115.399 242.215C116.428 239.684 117.86 237.468 119.692 235.566C121.525 233.663 123.663 232.171 126.105 231.088C128.549 230.007 131.201 229.466 134.064 229.466C136.751 229.466 139.064 229.815 141.001 230.512C142.939 231.211 144.884 232.363 146.839 233.968C147.117 234.178 147.336 234.396 147.493 234.623C147.651 234.85 147.755 235.076 147.808 235.303C147.86 235.531 147.887 235.8 147.887 236.115C147.887 236.778 147.651 237.328 147.179 237.764C146.708 238.2 146.14 238.444 145.477 238.498C144.815 238.55 144.169 238.332 143.54 237.843C142.249 236.726 140.913 235.871 139.536 235.278C138.156 234.684 136.332 234.387 134.064 234.387C132.004 234.387 130.067 234.806 128.252 235.643C126.437 236.482 124.84 237.634 123.463 239.099C122.083 240.566 121.009 242.267 120.241 244.204C119.473 246.142 119.091 248.21 119.091 250.408C119.091 252.642 119.473 254.728 120.241 256.664C121.009 258.602 122.083 260.303 123.463 261.77C124.84 263.235 126.437 264.379 128.252 265.199C130.067 266.019 132.004 266.43 134.064 266.43C135.844 266.43 137.528 266.124 139.116 265.514C140.704 264.903 142.232 264.056 143.697 262.974C144.325 262.52 144.945 262.319 145.556 262.372C146.167 262.423 146.681 262.668 147.101 263.104C147.52 263.542 147.729 264.143 147.729 264.911C147.729 265.26 147.659 265.6 147.52 265.931C147.38 266.264 147.171 266.57 146.892 266.848C145.007 268.35 142.991 269.484 140.844 270.251C138.697 271.018 136.437 271.403 134.064 271.403Z" fill="#3E3968"/>
<path d="M159.142 270.88C158.409 270.88 157.771 270.618 157.231 270.094C156.69 269.57 156.419 268.925 156.419 268.157V232.712C156.419 231.945 156.69 231.298 157.231 230.774C157.771 230.252 158.409 229.989 159.142 229.989C159.909 229.989 160.555 230.252 161.079 230.774C161.603 231.298 161.865 231.945 161.865 232.712V248.418L179.194 231.089C179.614 230.67 179.997 230.382 180.346 230.225C180.694 230.068 181.061 229.989 181.446 229.989C182.318 229.989 182.946 230.252 183.331 230.774C183.714 231.298 183.854 231.918 183.75 232.633C183.645 233.349 183.313 234.004 182.755 234.597L169.403 248L183.017 266.534C183.435 267.128 183.61 267.764 183.541 268.445C183.47 269.125 183.226 269.702 182.807 270.173C182.389 270.644 181.83 270.88 181.131 270.88C180.154 270.88 179.403 270.496 178.881 269.728L165.634 251.769L161.865 255.54V268.157C161.865 268.925 161.603 269.57 161.079 270.094C160.555 270.618 159.909 270.88 159.142 270.88Z" fill="#3E3968"/>
<path d="M207.572 271.403C204.745 271.403 202.1 270.871 199.64 269.807C197.18 268.742 195.033 267.259 193.2 265.355C191.368 263.454 189.936 261.228 188.906 258.68C187.877 256.134 187.362 253.375 187.362 250.408C187.362 247.476 187.877 244.746 188.906 242.215C189.936 239.684 191.368 237.468 193.2 235.566C195.033 233.663 197.17 232.171 199.613 231.088C202.057 230.007 204.709 229.466 207.572 229.466C210.258 229.466 212.572 229.815 214.509 230.512C216.446 231.211 218.392 232.363 220.346 233.968C220.625 234.178 220.844 234.396 221.001 234.623C221.158 234.85 221.262 235.076 221.316 235.303C221.368 235.531 221.394 235.8 221.394 236.115C221.394 236.778 221.158 237.328 220.686 237.764C220.216 238.2 219.648 238.444 218.985 238.498C218.322 238.55 217.677 238.332 217.048 237.843C215.757 236.726 214.421 235.871 213.044 235.278C211.664 234.684 209.84 234.387 207.572 234.387C205.512 234.387 203.574 234.806 201.76 235.643C199.945 236.482 198.348 237.634 196.97 239.099C195.59 240.566 194.517 242.267 193.749 244.204C192.981 246.142 192.598 248.21 192.598 250.408C192.598 252.642 192.981 254.728 193.749 256.664C194.517 258.602 195.59 260.303 196.97 261.77C198.348 263.235 199.945 264.379 201.76 265.199C203.574 266.019 205.512 266.43 207.572 266.43C209.352 266.43 211.036 266.124 212.624 265.514C214.212 264.903 215.74 264.056 217.205 262.974C217.833 262.52 218.453 262.319 219.064 262.372C219.674 262.423 220.189 262.668 220.609 263.104C221.028 263.542 221.237 264.143 221.237 264.911C221.237 265.26 221.166 265.6 221.028 265.931C220.888 266.264 220.678 266.57 220.4 266.848C218.514 268.35 216.498 269.484 214.352 270.251C212.205 271.018 209.945 271.403 207.572 271.403Z" fill="#3E3968"/>
<path d="M232.65 270.88C231.882 270.88 231.237 270.618 230.713 270.094C230.189 269.57 229.928 268.925 229.928 268.157V232.712C229.928 231.909 230.189 231.256 230.713 230.749C231.237 230.242 231.882 229.989 232.65 229.989C233.453 229.989 234.108 230.242 234.613 230.749C235.12 231.256 235.373 231.909 235.373 232.712V247.738H259.666V232.712C259.666 231.909 259.928 231.256 260.452 230.749C260.976 230.242 261.621 229.989 262.389 229.989C263.192 229.989 263.837 230.242 264.326 230.749C264.814 231.256 265.058 231.909 265.058 232.712V268.157C265.058 268.925 264.814 269.57 264.326 270.094C263.837 270.618 263.192 270.88 262.389 270.88C261.621 270.88 260.976 270.618 260.452 270.094C259.928 269.57 259.666 268.925 259.666 268.157V252.554H235.373V268.157C235.373 268.925 235.12 269.57 234.613 270.094C234.108 270.618 233.453 270.88 232.65 270.88Z" fill="#3E3968"/>
<path d="M276.681 261.874L278.776 257.372H299.298L301.393 261.874H276.681ZM273.906 270.88C272.929 270.88 272.178 270.461 271.654 269.624C271.132 268.785 271.078 267.896 271.497 266.953L286.21 231.822C286.733 230.601 287.588 229.989 288.776 229.989C290.032 229.989 290.886 230.601 291.341 231.822L306.105 267.057C306.489 268.036 306.428 268.916 305.922 269.701C305.416 270.486 304.657 270.88 303.645 270.88C303.121 270.88 302.624 270.732 302.152 270.434C301.681 270.138 301.341 269.728 301.132 269.204L288.148 236.953H289.613L276.42 269.204C276.174 269.764 275.817 270.182 275.345 270.461C274.874 270.741 274.394 270.88 273.906 270.88Z" fill="#3E3968"/>
<path d="M315.058 270.88C314.289 270.88 313.645 270.618 313.121 270.094C312.597 269.57 312.334 268.925 312.334 268.157V232.712C312.334 231.909 312.597 231.256 313.121 230.749C313.645 230.242 314.289 229.989 315.058 229.989C315.86 229.989 316.514 230.242 317.021 230.749C317.528 231.256 317.78 231.909 317.78 232.712V268.157C317.78 268.925 317.528 269.57 317.021 270.094C316.514 270.618 315.86 270.88 315.058 270.88Z" fill="#3E3968"/>
<path d="M330.922 270.88C330.154 270.88 329.515 270.618 329.01 270.094C328.504 269.57 328.251 268.925 328.251 268.157V232.712C328.251 231.909 328.504 231.256 329.01 230.749C329.515 230.242 330.154 229.989 330.922 229.989C331.759 229.989 332.456 230.321 333.016 230.984L355.842 261.35V232.712C355.842 231.909 356.104 231.256 356.628 230.749C357.152 230.242 357.798 229.989 358.566 229.989C359.368 229.989 360.014 230.242 360.503 230.749C360.991 231.256 361.236 231.909 361.236 232.712V268.157C361.236 268.925 360.991 269.57 360.503 270.094C360.014 270.618 359.368 270.88 358.566 270.88C358.216 270.88 357.84 270.801 357.439 270.644C357.038 270.488 356.715 270.252 356.471 269.937L333.643 239.57V268.157C333.643 268.925 333.39 269.57 332.884 270.094C332.378 270.618 331.724 270.88 330.922 270.88Z" fill="#3E3968"/>
<path d="M76.6641 311.46C74.4268 311.46 72.4495 310.976 70.7308 310.007C69.0121 309.04 67.6615 307.696 66.6801 305.977C65.6988 304.259 65.2068 302.295 65.2068 300.085C65.2068 297.849 65.6708 295.879 66.5975 294.173C67.5255 292.469 68.8015 291.125 70.4241 290.143C72.0468 289.16 73.9228 288.669 76.0508 288.669C78.1228 288.669 79.9308 289.14 81.4721 290.081C83.0121 291.023 84.1988 292.325 85.0308 293.989C85.8628 295.653 86.2788 297.549 86.2788 299.676C86.2788 300.14 86.1281 300.515 85.8295 300.801C85.5281 301.088 85.1468 301.231 84.6841 301.231H67.5801V298.408H84.8881L83.1281 299.636C83.1561 298.136 82.8828 296.785 82.3095 295.585C81.7375 294.384 80.9188 293.443 79.8548 292.761C78.7908 292.08 77.5228 291.739 76.0508 291.739C74.4948 291.739 73.1375 292.093 71.9788 292.801C70.8188 293.512 69.9335 294.501 69.3201 295.768C68.7055 297.037 68.3988 298.476 68.3988 300.085C68.3988 301.695 68.7521 303.128 69.4628 304.381C70.1721 305.636 71.1468 306.619 72.3881 307.328C73.6295 308.037 75.0548 308.392 76.6641 308.392C77.5908 308.392 78.5388 308.228 79.5081 307.9C80.4748 307.572 81.2468 307.164 81.8188 306.673C82.1468 306.427 82.5201 306.299 82.9441 306.284C83.3668 306.271 83.7148 306.387 83.9881 306.632C84.3961 306.987 84.6081 307.368 84.6228 307.777C84.6348 308.187 84.4521 308.541 84.0695 308.841C83.1695 309.605 82.0241 310.233 80.6321 310.724C79.2415 311.215 77.9175 311.46 76.6641 311.46Z" fill="#6A6B6D"/>
<path d="M110.297 311.051C109.915 311.379 109.513 311.522 109.09 311.48C108.666 311.44 108.305 311.23 108.006 310.847L99.1272 299.922L101.541 297.712L110.542 308.8C110.842 309.155 110.978 309.538 110.951 309.947C110.925 310.356 110.706 310.723 110.297 311.051ZM96.6312 303.563L94.5445 301.272L108.087 289.039C108.442 288.711 108.817 288.562 109.213 288.588C109.607 288.615 109.969 288.807 110.297 289.16C110.625 289.515 110.774 289.891 110.747 290.286C110.719 290.682 110.529 291.043 110.174 291.37L96.6312 303.563ZM95.3219 311.255C94.8312 311.255 94.4272 311.099 94.1139 310.784C93.8005 310.471 93.6432 310.068 93.6432 309.578V280.978C93.6432 280.487 93.8005 280.084 94.1139 279.77C94.4272 279.458 94.8312 279.3 95.3219 279.3C95.8392 279.3 96.2565 279.458 96.5699 279.77C96.8819 280.084 97.0405 280.487 97.0405 280.978V309.578C97.0405 310.068 96.8819 310.471 96.5699 310.784C96.2565 311.099 95.8392 311.255 95.3219 311.255" fill="#6A6B6D"/>
<path d="M127.195 308.351C128.723 308.351 130.086 307.989 131.287 307.267C132.487 306.544 133.429 305.563 134.111 304.32C134.793 303.079 135.134 301.668 135.134 300.085C135.134 298.504 134.793 297.085 134.111 295.829C133.429 294.576 132.487 293.588 131.287 292.864C130.086 292.141 128.723 291.779 127.195 291.779C125.669 291.779 124.297 292.141 123.083 292.864C121.87 293.588 120.915 294.576 120.219 295.829C119.525 297.085 119.177 298.504 119.177 300.085C119.177 301.668 119.525 303.079 120.219 304.32C120.915 305.563 121.87 306.544 123.083 307.267C124.297 307.989 125.669 308.351 127.195 308.351ZM127.195 311.46C124.986 311.46 123.029 310.969 121.323 309.987C119.619 309.005 118.275 307.656 117.294 305.936C116.313 304.219 115.821 302.268 115.821 300.085C115.821 297.876 116.313 295.912 117.294 294.193C118.275 292.476 119.619 291.125 121.323 290.143C123.029 289.16 124.986 288.669 127.195 288.669C129.378 288.669 131.314 289.16 133.006 290.143C134.697 291.125 136.033 292.476 137.015 294.193C137.998 295.912 138.502 297.876 138.529 300.085C138.529 302.268 138.038 304.219 137.057 305.936C136.074 307.656 134.731 309.005 133.026 309.987C131.321 310.969 129.378 311.46 127.195 311.46Z" fill="#6A6B6D"/>
<path d="M154.609 311.46C152.917 311.46 151.274 311.18 149.678 310.621C148.083 310.063 146.807 309.265 145.854 308.228C145.526 307.873 145.389 307.464 145.445 307C145.498 306.537 145.717 306.155 146.098 305.855C146.535 305.527 146.978 305.392 147.429 305.445C147.879 305.5 148.253 305.691 148.554 306.017C149.153 306.728 149.986 307.293 151.05 307.717C152.113 308.14 153.286 308.351 154.569 308.351C156.45 308.351 157.835 308.031 158.721 307.389C159.607 306.748 160.065 305.949 160.093 304.995C160.093 304.069 159.649 303.291 158.762 302.664C157.875 302.036 156.369 301.545 154.241 301.191C151.486 300.727 149.474 299.949 148.205 298.857C146.938 297.767 146.303 296.459 146.303 294.929C146.303 293.539 146.685 292.38 147.449 291.452C148.213 290.525 149.214 289.829 150.457 289.365C151.698 288.901 153.041 288.669 154.487 288.669C156.314 288.669 157.897 288.977 159.233 289.591C160.569 290.204 161.647 291.029 162.465 292.065C162.765 292.448 162.894 292.851 162.854 293.272C162.813 293.696 162.589 294.031 162.179 294.275C161.823 294.521 161.407 294.603 160.93 294.521C160.454 294.439 160.051 294.221 159.723 293.865C159.042 293.129 158.265 292.591 157.391 292.249C156.518 291.909 155.522 291.739 154.405 291.739C152.986 291.739 151.841 292.019 150.967 292.577C150.094 293.137 149.658 293.853 149.658 294.725C149.658 295.325 149.815 295.844 150.129 296.28C150.442 296.717 151.001 297.105 151.806 297.445C152.611 297.787 153.763 298.095 155.263 298.367C157.309 298.721 158.926 299.22 160.113 299.86C161.299 300.501 162.145 301.245 162.65 302.091C163.154 302.936 163.406 303.877 163.406 304.913C163.406 306.196 163.043 307.321 162.322 308.289C161.599 309.257 160.583 310.028 159.274 310.6C157.965 311.173 156.409 311.46 154.609 311.46Z" fill="#6A6B6D"/>
<path d="M174.739 321.035C174.52 321.035 174.248 320.965 173.92 320.831C172.912 320.365 172.639 319.643 173.103 318.661L186.074 289.816C186.536 288.86 187.26 288.601 188.242 289.039C189.251 289.448 189.538 290.157 189.1 291.165L176.048 319.971C175.775 320.68 175.339 321.035 174.739 321.035ZM179.363 310.477C178.927 310.697 178.518 310.737 178.136 310.601C177.754 310.465 177.44 310.165 177.195 309.701L168.03 291.165C167.811 290.703 167.778 290.28 167.927 289.897C168.076 289.516 168.371 289.216 168.807 288.997C169.27 288.807 169.694 288.779 170.075 288.916C170.456 289.052 170.756 289.339 170.975 289.775L179.936 308.351C180.154 308.788 180.228 309.204 180.162 309.599C180.092 309.995 179.826 310.288 179.363 310.477Z" fill="#6A6B6D"/>
<path d="M203.095 311.46C201.403 311.46 199.76 311.18 198.164 310.621C196.568 310.063 195.293 309.265 194.339 308.228C194.011 307.873 193.875 307.464 193.929 307C193.984 306.537 194.201 306.155 194.584 305.855C195.02 305.527 195.464 305.392 195.913 305.445C196.364 305.5 196.739 305.691 197.039 306.017C197.639 306.728 198.471 307.293 199.535 307.717C200.599 308.14 201.771 308.351 203.053 308.351C204.936 308.351 206.32 308.031 207.207 307.389C208.093 306.748 208.549 305.949 208.577 304.995C208.577 304.069 208.135 303.291 207.248 302.664C206.361 302.036 204.853 301.545 202.725 301.191C199.972 300.727 197.96 299.949 196.691 298.857C195.423 297.767 194.789 296.459 194.789 294.929C194.789 293.539 195.171 292.38 195.935 291.452C196.697 290.525 197.7 289.829 198.941 289.365C200.183 288.901 201.527 288.669 202.972 288.669C204.799 288.669 206.381 288.977 207.717 289.591C209.055 290.204 210.132 291.029 210.951 292.065C211.251 292.448 211.38 292.851 211.339 293.272C211.299 293.696 211.073 294.031 210.664 294.275C210.309 294.521 209.893 294.603 209.416 294.521C208.939 294.439 208.537 294.221 208.209 293.865C207.527 293.129 206.751 292.591 205.877 292.249C205.004 291.909 204.008 291.739 202.891 291.739C201.471 291.739 200.325 292.019 199.453 292.577C198.58 293.137 198.144 293.853 198.144 294.725C198.144 295.325 198.3 295.844 198.615 296.28C198.928 296.717 199.487 297.105 200.292 297.445C201.096 297.787 202.249 298.095 203.749 298.367C205.795 298.721 207.411 299.22 208.599 299.86C209.784 300.501 210.631 301.245 211.135 302.091C211.639 302.936 211.891 303.877 211.891 304.913C211.891 306.196 211.529 307.321 210.807 308.289C210.084 309.257 209.069 310.028 207.759 310.6C206.451 311.173 204.895 311.46 203.095 311.46Z" fill="#6A6B6D"/>
<path d="M227.889 311.256C226.471 311.256 225.203 310.914 224.084 310.233C222.965 309.552 222.085 308.61 221.445 307.409C220.804 306.21 220.483 304.86 220.483 303.358V283.473C220.483 282.982 220.64 282.574 220.953 282.246C221.268 281.918 221.684 281.756 222.203 281.756C222.693 281.756 223.103 281.918 223.429 282.246C223.757 282.574 223.92 282.982 223.92 283.473V303.358C223.92 304.641 224.296 305.705 225.045 306.55C225.796 307.396 226.744 307.818 227.889 307.818H229.116C229.553 307.818 229.921 307.982 230.223 308.309C230.521 308.637 230.672 309.046 230.672 309.538C230.672 310.056 230.488 310.472 230.119 310.785C229.752 311.098 229.281 311.256 228.708 311.256H227.889ZM218.071 292.68C217.605 292.68 217.223 292.536 216.924 292.25C216.624 291.964 216.473 291.616 216.473 291.208C216.473 290.77 216.624 290.409 216.924 290.122C217.223 289.836 217.605 289.693 218.071 289.693H228.176C228.64 289.693 229.021 289.836 229.321 290.122C229.621 290.409 229.772 290.77 229.772 291.208C229.772 291.616 229.621 291.964 229.321 292.25C229.021 292.536 228.64 292.68 228.176 292.68H218.071Z" fill="#6A6B6D"/>
<path d="M248.102 311.46C245.865 311.46 243.887 310.976 242.169 310.007C240.45 309.04 239.099 307.696 238.118 305.977C237.135 304.259 236.645 302.295 236.645 300.085C236.645 297.849 237.109 295.879 238.035 294.173C238.963 292.469 240.239 291.125 241.862 290.143C243.485 289.16 245.361 288.669 247.489 288.669C249.561 288.669 251.369 289.14 252.91 290.081C254.45 291.023 255.637 292.325 256.469 293.989C257.301 295.653 257.717 297.549 257.717 299.676C257.717 300.14 257.566 300.515 257.267 300.801C256.966 301.088 256.585 301.231 256.122 301.231H239.018V298.408H256.326L254.566 299.636C254.594 298.136 254.321 296.785 253.747 295.585C253.175 294.384 252.357 293.443 251.293 292.761C250.229 292.08 248.961 291.739 247.489 291.739C245.933 291.739 244.575 292.093 243.417 292.801C242.257 293.512 241.371 294.501 240.758 295.768C240.143 297.037 239.837 298.476 239.837 300.085C239.837 301.695 240.19 303.128 240.901 304.381C241.61 305.636 242.585 306.619 243.826 307.328C245.066 308.037 246.493 308.392 248.102 308.392C249.029 308.392 249.977 308.228 250.946 307.9C251.913 307.572 252.685 307.164 253.257 306.673C253.585 306.427 253.958 306.299 254.382 306.284C254.805 306.271 255.153 306.387 255.426 306.632C255.834 306.987 256.046 307.368 256.061 307.777C256.073 308.187 255.89 308.541 255.507 308.841C254.607 309.605 253.462 310.233 252.07 310.724C250.679 311.215 249.355 311.46 248.102 311.46Z" fill="#6A6B6D"/>
<path d="M295.073 311.256C294.555 311.256 294.132 311.098 293.805 310.785C293.477 310.472 293.315 310.056 293.315 309.538V297.794C293.315 295.913 292.836 294.453 291.883 293.417C290.927 292.38 289.687 291.861 288.159 291.861C286.549 291.861 285.233 292.408 284.211 293.498C283.188 294.589 282.676 296.022 282.676 297.794H279.689C279.716 295.966 280.112 294.364 280.876 292.986C281.639 291.61 282.697 290.538 284.047 289.776C285.397 289.012 286.931 288.629 288.649 288.629C290.231 288.629 291.636 288.997 292.864 289.734C294.091 290.47 295.053 291.528 295.748 292.905C296.444 294.282 296.792 295.913 296.792 297.794V309.538C296.792 310.056 296.628 310.472 296.3 310.785C295.973 311.098 295.564 311.256 295.073 311.256ZM280.957 311.256C280.465 311.256 280.057 311.098 279.731 310.785C279.403 310.472 279.239 310.056 279.239 309.538V297.794C279.239 295.913 278.755 294.453 277.787 293.417C276.817 292.38 275.583 291.861 274.084 291.861C272.473 291.861 271.151 292.393 270.115 293.457C269.077 294.521 268.56 295.913 268.56 297.63H266.187C266.241 295.857 266.623 294.297 267.332 292.946C268.041 291.596 269.023 290.538 270.277 289.776C271.532 289.012 272.964 288.629 274.575 288.629C276.156 288.629 277.561 288.997 278.789 289.734C280.016 290.47 280.971 291.528 281.653 292.905C282.335 294.282 282.676 295.913 282.676 297.794V309.538C282.676 310.056 282.519 310.472 282.205 310.785C281.891 311.098 281.475 311.256 280.957 311.256ZM266.841 311.256C266.295 311.256 265.865 311.098 265.552 310.785C265.239 310.472 265.081 310.056 265.081 309.538V290.633C265.081 290.117 265.239 289.693 265.552 289.365C265.865 289.038 266.295 288.874 266.841 288.874C267.359 288.874 267.776 289.038 268.089 289.365C268.403 289.693 268.56 290.117 268.56 290.633V309.538C268.56 310.056 268.403 310.472 268.089 310.785C267.776 311.098 267.359 311.256 266.841 311.256Z" fill="#6A6B6D"/>
<path d="M109.72 39.908H127.921V21.712H109.72V39.908Z" fill="url(#paint0_linear_1_4)"/>
<path d="M182.519 0.181358V21.712H164.321V0.181358H146.119V21.712V39.908V58.112H109.72V149.108H146.119V167.313V185.5V207.032H164.321V185.5H182.519V207.032H200.721V185.5H218.295C243.396 185.5 263.799 165.095 263.799 140C263.799 125.137 256.636 111.912 245.573 103.605C256.636 95.3014 263.799 82.0747 263.799 67.2054C263.799 42.1187 243.396 21.712 218.295 21.712H200.721V0.181358H182.519ZM164.321 39.908H218.295C233.345 39.908 245.6 52.164 245.6 67.2054C245.6 82.256 233.345 94.512 218.295 94.512H164.321V76.3094H218.295C223.303 76.3094 227.399 72.2107 227.399 67.2054C227.399 62.2094 223.303 58.112 218.295 58.112H164.321V39.908ZM127.921 76.3094H146.119V94.512H127.921V76.3094ZM164.321 112.708H218.295C233.345 112.708 245.6 124.956 245.6 140C245.6 155.055 233.345 167.313 218.295 167.313H164.321V149.108H218.295C223.303 149.108 227.399 145.017 227.399 140C227.399 135.009 223.303 130.904 218.295 130.904H164.321V112.708ZM127.921 112.708H146.119V130.904H127.921V112.708Z" fill="url(#paint1_linear_1_4)"/>
<path d="M109.72 185.5H127.921V167.313H109.72V185.5Z" fill="url(#paint2_linear_1_4)"/>
<defs>
<linearGradient id="paint0_linear_1_4" x1="127.921" y1="30.8098" x2="109.719" y2="30.8098" gradientUnits="userSpaceOnUse">
<stop stop-color="#00B6CF"/>
<stop offset="1" stop-color="#3E3968"/>
</linearGradient>
<linearGradient id="paint1_linear_1_4" x1="263.799" y1="103.606" x2="109.719" y2="103.606" gradientUnits="userSpaceOnUse">
<stop stop-color="#00B6CF"/>
<stop offset="1" stop-color="#3E3968"/>
</linearGradient>
<linearGradient id="paint2_linear_1_4" x1="127.921" y1="176.407" x2="109.719" y2="176.407" gradientUnits="userSpaceOnUse">
<stop stop-color="#00B6CF"/>
<stop offset="1" stop-color="#3E3968"/>
</linearGradient>
</defs>
</svg>
