<svg width="500" height="446" viewBox="0 0 500 446" fill="none" xmlns="http://www.w3.org/2000/svg">
<path d="M7.55305 368.574H22.6573C24.884 368.574 26.8444 368.187 28.5403 367.412C30.2344 366.637 31.566 365.5 32.5351 363.998C33.5023 362.498 33.9869 360.634 33.9869 358.407C33.9869 356.325 33.5023 354.607 32.5351 353.251C31.566 351.896 30.2344 350.865 28.5403 350.165C26.8444 349.464 24.884 349.11 22.6573 349.11H7.55305V368.574ZM7.55305 342.14H21.1334C23.8927 342.14 26.1546 341.461 27.9226 340.105C29.6907 338.752 30.5747 336.693 30.5747 333.932C30.5747 331.173 29.6907 329.129 27.9226 327.798C26.1546 326.466 23.8927 325.8 21.1334 325.8H7.55305V342.14ZM3.77653 375.546C2.71126 375.546 1.81614 375.182 1.08931 374.457C0.362488 373.73 0 372.835 0 371.769V322.604C0 321.491 0.362488 320.583 1.08931 319.88C1.81614 319.179 2.71126 318.828 3.77653 318.828H21.1334C24.4254 318.828 27.3179 319.47 29.8109 320.753C32.3039 322.035 34.2662 323.814 35.6939 326.091C37.1217 328.367 37.8356 330.98 37.8356 333.932C37.8356 336.305 37.1938 338.448 35.9121 340.361C34.6286 342.273 32.8735 343.786 30.6468 344.899C33.8426 345.674 36.4078 347.2 38.3441 349.475C40.2805 351.751 41.2496 354.729 41.2496 358.407C41.2496 361.747 40.4617 364.701 38.8897 367.266C37.3159 369.833 35.1243 371.855 32.3169 373.33C29.5076 374.808 26.2896 375.546 22.6573 375.546H3.77653Z" fill="white"/>
<path d="M56.2087 375.545C55.1434 375.545 54.2594 375.183 53.5584 374.456C52.8557 373.729 52.5043 372.834 52.5043 371.769V322.604C52.5043 321.54 52.8686 320.643 53.5936 319.916C54.3204 319.191 55.1915 318.827 56.2087 318.827C57.2721 318.827 58.1691 319.191 58.8959 319.916C59.6227 320.643 59.9852 321.54 59.9852 322.604V367.992H86.2748C87.3382 367.992 88.2352 368.357 88.962 369.082C89.687 369.808 90.0513 370.705 90.0513 371.769C90.0513 372.834 89.687 373.729 88.962 374.456C88.2352 375.183 87.3382 375.545 86.2748 375.545H56.2087Z" fill="white"/>
<path d="M120.262 369.445C123.408 369.445 126.301 368.876 128.942 367.738C131.579 366.601 133.867 365.027 135.803 363.019C137.739 361.01 139.228 358.648 140.27 355.937C141.311 353.226 141.83 350.298 141.83 347.151C141.83 344.003 141.311 341.075 140.27 338.362C139.228 335.653 137.739 333.291 135.803 331.282C133.867 329.274 131.579 327.713 128.942 326.598C126.301 325.485 123.408 324.928 120.262 324.928C117.115 324.928 114.222 325.485 111.585 326.598C108.944 327.713 106.669 329.274 104.759 331.282C102.845 333.291 101.356 335.653 100.29 338.362C99.2252 341.075 98.6944 344.003 98.6944 347.151C98.6944 350.298 99.2252 353.226 100.29 355.937C101.356 358.648 102.845 361.01 104.759 363.019C106.669 365.027 108.944 366.601 111.585 367.738C114.222 368.876 117.115 369.445 120.262 369.445ZM120.262 376.272C116.001 376.272 112.105 375.556 108.57 374.128C105.036 372.702 101.997 370.692 99.4564 368.101C96.9153 365.512 94.9401 362.436 93.5382 358.878C92.1327 355.321 91.4317 351.412 91.4317 347.151C91.4317 342.891 92.1327 338.993 93.5382 335.458C94.9401 331.924 96.9153 328.862 99.4564 326.272C101.997 323.681 105.036 321.673 108.57 320.243C112.105 318.815 116.001 318.102 120.262 318.102C124.522 318.102 128.407 318.815 131.919 320.243C135.428 321.673 138.464 323.681 141.031 326.272C143.598 328.862 145.583 331.924 146.987 335.458C148.39 338.993 149.093 342.891 149.093 347.151C149.093 351.412 148.39 355.321 146.987 358.878C145.583 362.436 143.598 365.512 141.031 368.101C138.464 370.692 135.428 372.702 131.919 374.128C128.407 375.556 124.522 376.272 120.262 376.272Z" fill="white"/>
<path d="M184.896 376.271C180.975 376.271 177.306 375.534 173.894 374.058C170.482 372.58 167.504 370.523 164.961 367.882C162.42 365.245 160.434 362.159 159.006 358.624C157.578 355.092 156.864 351.265 156.864 347.15C156.864 343.084 157.578 339.296 159.006 335.786C160.434 332.275 162.42 329.202 164.961 326.563C167.504 323.923 170.469 321.854 173.857 320.352C177.247 318.852 180.925 318.102 184.896 318.102C188.623 318.102 191.831 318.586 194.519 319.553C197.206 320.522 199.904 322.12 202.615 324.347C203.002 324.637 203.305 324.941 203.523 325.255C203.742 325.569 203.886 325.884 203.96 326.198C204.032 326.515 204.069 326.888 204.069 327.325C204.069 328.244 203.742 329.008 203.087 329.612C202.434 330.217 201.646 330.556 200.727 330.63C199.808 330.702 198.913 330.4 198.04 329.721C196.25 328.172 194.396 326.986 192.486 326.163C190.572 325.34 188.042 324.928 184.896 324.928C182.039 324.928 179.351 325.508 176.834 326.67C174.317 327.833 172.102 329.431 170.191 331.464C168.277 333.498 166.788 335.858 165.723 338.545C164.658 341.232 164.127 344.101 164.127 347.15C164.127 350.248 164.658 353.143 165.723 355.828C166.788 358.515 168.277 360.875 170.191 362.909C172.102 364.942 174.317 366.529 176.834 367.666C179.351 368.804 182.039 369.373 184.896 369.373C187.365 369.373 189.701 368.95 191.903 368.103C194.106 367.256 196.226 366.081 198.258 364.579C199.129 363.951 199.989 363.671 200.836 363.745C201.683 363.816 202.397 364.156 202.98 364.761C203.56 365.367 203.851 366.201 203.851 367.267C203.851 367.751 203.753 368.223 203.56 368.681C203.366 369.144 203.076 369.567 202.689 369.954C200.074 372.036 197.278 373.61 194.3 374.674C191.323 375.737 188.188 376.271 184.896 376.271Z" fill="white"/>
<path d="M219.681 375.545C218.664 375.545 217.78 375.183 217.031 374.456C216.28 373.729 215.905 372.834 215.905 371.769V322.604C215.905 321.54 216.28 320.643 217.031 319.916C217.78 319.191 218.664 318.827 219.681 318.827C220.744 318.827 221.641 319.191 222.368 319.916C223.095 320.643 223.458 321.54 223.458 322.604V344.39L247.495 320.353C248.077 319.772 248.608 319.373 249.092 319.154C249.575 318.936 250.084 318.827 250.618 318.827C251.828 318.827 252.699 319.191 253.233 319.916C253.764 320.643 253.958 321.503 253.814 322.495C253.668 323.488 253.207 324.396 252.434 325.219L233.914 343.809L252.797 369.518C253.378 370.341 253.62 371.223 253.524 372.168C253.426 373.111 253.087 373.912 252.507 374.565C251.926 375.218 251.151 375.545 250.182 375.545C248.826 375.545 247.785 375.013 247.06 373.947L228.686 349.037L223.458 354.268V371.769C223.458 372.834 223.095 373.729 222.368 374.456C221.641 375.183 220.744 375.545 219.681 375.545Z" fill="white"/>
<path d="M286.856 376.271C282.935 376.271 279.266 375.534 275.854 374.058C272.442 372.58 269.464 370.523 266.921 367.882C264.38 365.245 262.394 362.159 260.966 358.624C259.538 355.092 258.825 351.265 258.825 347.15C258.825 343.084 259.538 339.296 260.966 335.786C262.394 332.275 264.38 329.202 266.921 326.563C269.464 323.923 272.429 321.854 275.817 320.352C279.207 318.852 282.886 318.102 286.856 318.102C290.583 318.102 293.792 318.586 296.479 319.553C299.166 320.522 301.864 322.12 304.576 324.347C304.962 324.637 305.265 324.941 305.484 325.255C305.702 325.569 305.846 325.884 305.92 326.198C305.992 326.515 306.029 326.888 306.029 327.325C306.029 328.244 305.702 329.008 305.047 329.612C304.394 330.217 303.607 330.556 302.687 330.63C301.768 330.702 300.873 330.4 300 329.721C298.21 328.172 296.357 326.986 294.446 326.163C292.532 325.34 290.002 324.928 286.856 324.928C283.999 324.928 281.312 325.508 278.795 326.67C276.278 327.833 274.062 329.431 272.151 331.464C270.237 333.498 268.749 335.858 267.683 338.545C266.618 341.232 266.087 344.101 266.087 347.15C266.087 350.248 266.618 353.143 267.683 355.828C268.749 358.515 270.237 360.875 272.151 362.909C274.062 364.942 276.278 366.529 278.795 367.666C281.312 368.804 283.999 369.373 286.856 369.373C289.325 369.373 291.661 368.95 293.864 368.103C296.066 367.256 298.186 366.081 300.218 364.579C301.089 363.951 301.949 363.671 302.796 363.745C303.644 363.816 304.357 364.156 304.94 364.761C305.521 365.367 305.811 366.201 305.811 367.267C305.811 367.751 305.713 368.223 305.521 368.681C305.326 369.144 305.036 369.567 304.65 369.954C302.035 372.036 299.238 373.61 296.261 374.674C293.283 375.737 290.148 376.271 286.856 376.271Z" fill="white"/>
<path d="M321.642 375.545C320.577 375.545 319.682 375.183 318.955 374.456C318.228 373.729 317.866 372.834 317.866 371.769V322.604C317.866 321.49 318.228 320.584 318.955 319.881C319.682 319.179 320.577 318.827 321.642 318.827C322.755 318.827 323.664 319.179 324.364 319.881C325.067 320.584 325.419 321.49 325.419 322.604V343.447H359.115V322.604C359.115 321.49 359.478 320.584 360.204 319.881C360.931 319.179 361.826 318.827 362.892 318.827C364.005 318.827 364.9 319.179 365.579 319.881C366.256 320.584 366.594 321.49 366.594 322.604V371.769C366.594 372.834 366.256 373.729 365.579 374.456C364.9 375.183 364.005 375.545 362.892 375.545C361.826 375.545 360.931 375.183 360.204 374.456C359.478 373.729 359.115 372.834 359.115 371.769V350.127H325.419V371.769C325.419 372.834 325.067 373.729 324.364 374.456C323.664 375.183 322.755 375.545 321.642 375.545Z" fill="white"/>
<path d="M382.716 363.054L385.621 356.809H414.088L416.993 363.054H382.716ZM378.867 375.545C377.512 375.545 376.47 374.965 375.744 373.803C375.019 372.64 374.945 371.406 375.525 370.099L395.934 321.37C396.659 319.676 397.844 318.827 399.492 318.827C401.234 318.827 402.42 319.676 403.05 321.37L423.529 370.243C424.062 371.6 423.977 372.821 423.276 373.91C422.573 375 421.521 375.545 420.117 375.545C419.39 375.545 418.7 375.34 418.045 374.928C417.393 374.517 416.921 373.947 416.631 373.221L398.621 328.487H400.653L382.353 373.221C382.013 373.997 381.517 374.578 380.863 374.965C380.21 375.353 379.544 375.545 378.867 375.545Z" fill="white"/>
<path d="M435.948 375.545C434.881 375.545 433.987 375.183 433.261 374.456C432.534 373.729 432.169 372.834 432.169 371.769V322.604C432.169 321.49 432.534 320.584 433.261 319.881C433.987 319.179 434.881 318.827 435.948 318.827C437.059 318.827 437.967 319.179 438.67 319.881C439.373 320.584 439.723 321.49 439.723 322.604V371.769C439.723 372.834 439.373 373.729 438.67 374.456C437.967 375.183 437.059 375.545 435.948 375.545Z" fill="white"/>
<path d="M457.952 375.545C456.886 375.545 456 375.183 455.299 374.456C454.598 373.729 454.247 372.834 454.247 371.769V322.604C454.247 321.49 454.598 320.584 455.299 319.881C456 319.179 456.886 318.827 457.952 318.827C459.113 318.827 460.08 319.288 460.857 320.207L492.517 362.327V322.604C492.517 321.49 492.882 320.584 493.608 319.881C494.335 319.179 495.23 318.827 496.296 318.827C497.409 318.827 498.304 319.179 498.983 319.881C499.66 320.584 500 321.49 500 322.604V371.769C500 372.834 499.66 373.729 498.983 374.456C498.304 375.183 497.409 375.545 496.296 375.545C495.811 375.545 495.29 375.436 494.733 375.218C494.176 375.002 493.729 374.674 493.39 374.238L461.726 332.117V371.769C461.726 372.834 461.375 373.729 460.674 374.456C459.971 375.183 459.065 375.545 457.952 375.545Z" fill="white"/>
<path d="M105.279 431.833C102.175 431.833 99.4325 431.162 97.0486 429.817C94.6647 428.477 92.7912 426.612 91.43 424.228C90.0689 421.845 89.3864 419.12 89.3864 416.056C89.3864 412.954 90.03 410.221 91.3154 407.855C92.6026 405.492 94.3725 403.628 96.6232 402.265C98.874 400.902 101.476 400.221 104.428 400.221C107.302 400.221 109.81 400.874 111.948 402.18C114.084 403.485 115.73 405.292 116.884 407.6C118.038 409.908 118.615 412.538 118.615 415.488C118.615 416.132 118.406 416.651 117.991 417.049C117.574 417.447 117.045 417.644 116.403 417.644H92.6784V413.729H116.686L114.245 415.433C114.283 413.352 113.904 411.478 113.109 409.814C112.316 408.148 111.18 406.842 109.704 405.897C108.228 404.952 106.47 404.478 104.428 404.478C102.27 404.478 100.387 404.97 98.7797 405.952C97.1707 406.938 95.9426 408.31 95.0919 410.067C94.2393 411.828 93.8139 413.824 93.8139 416.056C93.8139 418.288 94.304 420.276 95.2898 422.015C96.2737 423.755 97.6256 425.118 99.3474 426.102C101.069 427.086 103.046 427.578 105.279 427.578C106.564 427.578 107.879 427.35 109.223 426.895C110.564 426.44 111.635 425.874 112.428 425.194C112.883 424.852 113.401 424.674 113.989 424.654C114.576 424.635 115.058 424.796 115.437 425.136C116.003 425.628 116.297 426.157 116.318 426.725C116.334 427.293 116.081 427.785 115.55 428.201C114.302 429.261 112.713 430.132 110.782 430.812C108.853 431.493 107.017 431.833 105.279 431.833Z" fill="white"/>
<path d="M151.929 431.266C151.4 431.721 150.842 431.919 150.255 431.861C149.667 431.806 149.166 431.514 148.752 430.983L136.436 415.829L139.784 412.764L152.269 428.144C152.685 428.636 152.874 429.167 152.837 429.735C152.8 430.302 152.497 430.811 151.929 431.266ZM132.974 420.88L130.08 417.702L148.865 400.734C149.356 400.279 149.876 400.072 150.425 400.109C150.973 400.146 151.474 400.412 151.929 400.902C152.384 401.394 152.591 401.916 152.554 402.463C152.515 403.012 152.251 403.513 151.759 403.967L132.974 420.88ZM131.158 431.549C130.478 431.549 129.917 431.333 129.483 430.896C129.048 430.461 128.83 429.903 128.83 429.222V389.552C128.83 388.872 129.048 388.313 129.483 387.877C129.917 387.444 130.478 387.226 131.158 387.226C131.876 387.226 132.455 387.444 132.889 387.877C133.322 388.313 133.542 388.872 133.542 389.552V429.222C133.542 429.903 133.322 430.461 132.889 430.896C132.455 431.333 131.876 431.549 131.158 431.549" fill="white"/>
<path d="M175.369 427.52C177.488 427.52 179.379 427.019 181.045 426.017C182.709 425.014 184.015 423.653 184.962 421.929C185.907 420.208 186.381 418.251 186.381 416.056C186.381 413.862 185.907 411.894 184.962 410.152C184.015 408.414 182.709 407.043 181.045 406.039C179.379 405.037 177.488 404.534 175.369 404.534C173.251 404.534 171.348 405.037 169.665 406.039C167.982 407.043 166.658 408.414 165.693 410.152C164.729 411.894 164.247 413.862 164.247 416.056C164.247 418.251 164.729 420.208 165.693 421.929C166.658 423.653 167.982 425.014 169.665 426.017C171.348 427.019 173.251 427.52 175.369 427.52ZM175.369 431.833C172.305 431.833 169.59 431.153 167.224 429.79C164.861 428.428 162.996 426.557 161.635 424.171C160.274 421.789 159.592 419.083 159.592 416.056C159.592 412.991 160.274 410.267 161.635 407.883C162.996 405.501 164.861 403.628 167.224 402.265C169.59 400.901 172.305 400.221 175.369 400.221C178.397 400.221 181.082 400.901 183.429 402.265C185.774 403.628 187.627 405.501 188.99 407.883C190.353 410.267 191.052 412.991 191.089 416.056C191.089 419.083 190.409 421.789 189.047 424.171C187.684 426.557 185.822 428.428 183.457 429.79C181.091 431.153 178.397 431.833 175.369 431.833Z" fill="white"/>
<path d="M213.393 431.833C211.046 431.833 208.768 431.445 206.554 430.67C204.342 429.895 202.572 428.789 201.25 427.35C200.795 426.858 200.604 426.291 200.682 425.647C200.756 425.005 201.059 424.474 201.588 424.058C202.195 423.603 202.809 423.417 203.434 423.49C204.059 423.566 204.577 423.831 204.995 424.284C205.825 425.27 206.981 426.054 208.457 426.642C209.931 427.228 211.559 427.52 213.338 427.52C215.947 427.52 217.869 427.077 219.097 426.187C220.327 425.297 220.961 424.19 221 422.865C221 421.582 220.384 420.502 219.154 419.633C217.924 418.762 215.834 418.081 212.883 417.589C209.062 416.945 206.271 415.867 204.51 414.352C202.753 412.84 201.873 411.025 201.873 408.904C201.873 406.975 202.402 405.368 203.462 404.081C204.522 402.795 205.91 401.83 207.634 401.186C209.356 400.543 211.218 400.221 213.225 400.221C215.759 400.221 217.954 400.648 219.807 401.499C221.66 402.35 223.156 403.495 224.29 404.932C224.706 405.462 224.886 406.021 224.83 406.605C224.773 407.193 224.462 407.658 223.894 407.996C223.4 408.338 222.823 408.451 222.161 408.338C221.501 408.223 220.943 407.922 220.488 407.428C219.543 406.407 218.464 405.66 217.253 405.187C216.042 404.715 214.66 404.478 213.11 404.478C211.142 404.478 209.554 404.867 208.342 405.642C207.131 406.418 206.526 407.412 206.526 408.621C206.526 409.453 206.745 410.173 207.179 410.778C207.614 411.384 208.389 411.922 209.506 412.394C210.623 412.867 212.221 413.295 214.301 413.672C217.138 414.164 219.382 414.856 221.028 415.743C222.674 416.633 223.846 417.665 224.547 418.837C225.246 420.01 225.596 421.316 225.596 422.753C225.596 424.532 225.093 426.093 224.092 427.435C223.09 428.778 221.68 429.847 219.864 430.64C218.048 431.436 215.89 431.833 213.393 431.833Z" fill="white"/>
<path d="M241.315 445.114C241.012 445.114 240.635 445.018 240.18 444.831C238.782 444.185 238.402 443.183 239.046 441.822L257.037 401.811C257.679 400.485 258.683 400.127 260.044 400.733C261.444 401.301 261.842 402.285 261.235 403.683L243.131 443.638C242.752 444.622 242.148 445.114 241.315 445.114ZM247.729 430.47C247.124 430.775 246.557 430.831 246.028 430.642C245.497 430.453 245.062 430.037 244.722 429.394L232.009 403.683C231.706 403.041 231.659 402.455 231.867 401.924C232.074 401.395 232.482 400.979 233.087 400.676C233.729 400.411 234.317 400.373 234.846 400.563C235.375 400.752 235.791 401.149 236.094 401.754L248.524 427.52C248.826 428.127 248.929 428.704 248.837 429.251C248.741 429.801 248.371 430.208 247.729 430.47Z" fill="white"/>
<path d="M280.646 431.833C278.3 431.833 276.021 431.445 273.807 430.67C271.594 429.895 269.825 428.789 268.501 427.35C268.046 426.858 267.858 426.291 267.934 425.647C268.009 425.005 268.311 424.474 268.842 424.058C269.446 423.603 270.062 423.417 270.685 423.49C271.311 423.566 271.83 423.831 272.246 424.284C273.079 425.27 274.233 426.054 275.708 426.642C277.184 427.228 278.81 427.52 280.589 427.52C283.201 427.52 285.12 427.077 286.35 426.187C287.58 425.297 288.212 424.19 288.251 422.865C288.251 421.582 287.637 420.502 286.407 419.633C285.178 418.762 283.086 418.081 280.134 417.589C276.315 416.945 273.524 415.867 271.764 414.352C270.005 412.84 269.126 411.025 269.126 408.904C269.126 406.975 269.655 405.368 270.715 404.081C271.773 402.795 273.164 401.83 274.885 401.186C276.607 400.543 278.472 400.221 280.476 400.221C283.01 400.221 285.205 400.648 287.058 401.499C288.913 402.35 290.408 403.495 291.543 404.932C291.959 405.462 292.139 406.021 292.081 406.605C292.026 407.193 291.713 407.658 291.146 407.996C290.654 408.338 290.077 408.451 289.415 408.338C288.752 408.223 288.196 407.922 287.741 407.428C286.794 406.407 285.718 405.66 284.506 405.187C283.295 404.715 281.913 404.478 280.363 404.478C278.394 404.478 276.805 404.867 275.596 405.642C274.384 406.418 273.78 407.412 273.78 408.621C273.78 409.453 273.996 410.173 274.432 410.778C274.867 411.384 275.642 411.922 276.759 412.394C277.874 412.867 279.474 413.295 281.555 413.672C284.392 414.164 286.633 414.856 288.281 415.743C289.925 416.633 291.099 417.665 291.798 418.837C292.498 420.01 292.847 421.316 292.847 422.753C292.847 424.532 292.346 426.093 291.344 427.435C290.341 428.778 288.934 429.847 287.116 430.64C285.301 431.436 283.143 431.833 280.646 431.833Z" fill="white"/>
<path d="M315.038 431.55C313.07 431.55 311.312 431.076 309.76 430.131C308.208 429.186 306.988 427.88 306.1 426.214C305.21 424.551 304.765 422.678 304.765 420.596V393.013C304.765 392.333 304.983 391.767 305.417 391.312C305.854 390.857 306.431 390.631 307.15 390.631C307.831 390.631 308.399 390.857 308.852 391.312C309.307 391.767 309.532 392.333 309.532 393.013V420.596C309.532 422.375 310.054 423.851 311.093 425.023C312.135 426.196 313.45 426.782 315.038 426.782H316.74C317.346 426.782 317.857 427.009 318.275 427.462C318.689 427.917 318.898 428.485 318.898 429.168C318.898 429.885 318.643 430.462 318.13 430.897C317.622 431.331 316.969 431.55 316.174 431.55H315.038ZM301.419 405.783C300.774 405.783 300.243 405.584 299.829 405.188C299.412 404.79 299.203 404.308 299.203 403.742C299.203 403.135 299.412 402.634 299.829 402.236C300.243 401.839 300.774 401.641 301.419 401.641H315.436C316.079 401.641 316.608 401.839 317.024 402.236C317.441 402.634 317.65 403.135 317.65 403.742C317.65 404.308 317.441 404.79 317.024 405.188C316.608 405.584 316.079 405.783 315.436 405.783H301.419Z" fill="white"/>
<path d="M343.075 431.833C339.972 431.833 337.229 431.162 334.845 429.817C332.461 428.477 330.588 426.612 329.226 424.228C327.863 421.845 327.183 419.12 327.183 416.056C327.183 412.954 327.826 410.221 329.112 407.855C330.399 405.492 332.169 403.628 334.42 402.265C336.67 400.902 339.272 400.221 342.224 400.221C345.098 400.221 347.606 400.874 349.744 402.18C351.88 403.485 353.526 405.292 354.68 407.6C355.834 409.908 356.411 412.538 356.411 415.488C356.411 416.132 356.202 416.651 355.788 417.049C355.37 417.447 354.841 417.644 354.199 417.644H330.475V413.729H354.482L352.041 415.433C352.08 413.352 351.701 411.478 350.905 409.814C350.112 408.148 348.976 406.842 347.501 405.897C346.025 404.952 344.266 404.478 342.224 404.478C340.066 404.478 338.183 404.97 336.576 405.952C334.967 406.938 333.739 408.31 332.888 410.067C332.036 411.828 331.61 413.824 331.61 416.056C331.61 418.288 332.1 420.276 333.086 422.015C334.07 423.755 335.422 425.118 337.144 426.102C338.864 427.086 340.843 427.578 343.075 427.578C344.36 427.578 345.675 427.35 347.02 426.895C348.361 426.44 349.431 425.874 350.225 425.194C350.68 424.852 351.198 424.674 351.786 424.654C352.372 424.635 352.855 424.796 353.234 425.136C353.8 425.628 354.094 426.157 354.114 426.725C354.131 427.293 353.877 427.785 353.347 428.201C352.098 429.261 350.51 430.132 348.579 430.812C346.65 431.493 344.813 431.833 343.075 431.833Z" fill="white"/>
<path d="M408.227 431.55C407.508 431.55 406.922 431.331 406.469 430.897C406.014 430.462 405.788 429.885 405.788 429.168V412.878C405.788 410.268 405.124 408.243 403.802 406.806C402.476 405.367 400.756 404.648 398.636 404.648C396.404 404.648 394.579 405.406 393.16 406.919C391.742 408.432 391.031 410.42 391.031 412.878H386.889C386.926 410.342 387.475 408.119 388.535 406.209C389.593 404.3 391.061 402.813 392.933 401.755C394.806 400.696 396.933 400.165 399.317 400.165C401.51 400.165 403.46 400.675 405.163 401.698C406.864 402.719 408.2 404.186 409.163 406.096C410.129 408.006 410.611 410.268 410.611 412.878V429.168C410.611 429.885 410.384 430.462 409.929 430.897C409.476 431.331 408.908 431.55 408.227 431.55ZM388.648 431.55C387.965 431.55 387.399 431.331 386.946 430.897C386.491 430.462 386.264 429.885 386.264 429.168V412.878C386.264 410.268 385.592 408.243 384.25 406.806C382.905 405.367 381.193 404.648 379.114 404.648C376.88 404.648 375.045 405.386 373.608 406.862C372.169 408.338 371.452 410.268 371.452 412.65H368.16C368.235 410.191 368.764 408.027 369.748 406.153C370.732 404.28 372.093 402.813 373.834 401.755C375.574 400.696 377.56 400.165 379.794 400.165C381.988 400.165 383.937 400.675 385.64 401.698C387.342 402.719 388.666 404.186 389.613 406.096C390.558 408.006 391.031 410.268 391.031 412.878V429.168C391.031 429.885 390.813 430.462 390.379 430.897C389.942 431.331 389.365 431.55 388.648 431.55ZM369.068 431.55C368.309 431.55 367.714 431.331 367.279 430.897C366.845 430.462 366.626 429.885 366.626 429.168V402.945C366.626 402.229 366.845 401.641 367.279 401.186C367.714 400.733 368.309 400.505 369.068 400.505C369.785 400.505 370.364 400.733 370.799 401.186C371.233 401.641 371.452 402.229 371.452 402.945V429.168C371.452 429.885 371.233 430.462 370.799 430.897C370.364 431.331 369.785 431.55 369.068 431.55Z" fill="white"/>
<path d="M151.129 55.1718H176.376V29.9326H151.129V55.1718Z" fill="white"/>
<path d="M252.106 0.0680889V29.9326H226.865V0.0680889H201.617V29.9326V55.1717V80.4219H151.129V206.64H201.617V231.892V257.118V286.984H226.865V257.118H252.106V286.984H277.354V257.118H301.73C336.547 257.118 364.847 228.814 364.847 194.006C364.847 173.391 354.912 155.046 339.567 143.524C354.912 132.006 364.847 113.66 364.847 93.035C364.847 58.2381 336.547 29.9326 301.73 29.9326H277.354V0.0680889H252.106ZM226.865 55.1717H301.73C322.606 55.1717 339.604 72.1716 339.604 93.035C339.604 113.911 322.606 130.911 301.73 130.911H226.865V105.663H301.73C308.676 105.663 314.358 99.9778 314.358 93.035C314.358 86.1052 308.676 80.4219 301.73 80.4219H226.865V55.1717ZM176.376 105.663H201.617V130.911H176.376V105.663ZM226.865 156.15H301.73C322.606 156.15 339.604 173.139 339.604 194.006C339.604 214.888 322.606 231.892 301.73 231.892H226.865V206.64H301.73C308.676 206.64 314.358 200.966 314.358 194.006C314.358 187.084 308.676 181.389 301.73 181.389H226.865V156.15ZM176.376 156.15H201.617V181.389H176.376V156.15Z" fill="white"/>
<path d="M151.129 257.118H176.376V231.892H151.129V257.118Z" fill="white"/>
</svg>
